<?xml version="1.0" encoding="utf-8"?>
<!-- Generator: Adobe Illustrator 22.0.0, SVG Export Plug-In . SVG Version: 6.00 Build 0)  -->
<svg version="1.1" id="Ebene_1" xmlns="http://www.w3.org/2000/svg" xmlns:xlink="http://www.w3.org/1999/xlink" x="0px" y="0px"
	 viewBox="0 0 807.9 198.4" style="enable-background:new 0 0 807.9 198.4;" xml:space="preserve">
<g>
	<path d="M238.8,150c0,14.3-5.7,16.2-10.6,16.2s-10.6-1.8-10.6-16.2V3.1h-28.7v145.1c0,31.8,13.7,49.3,38.5,49.3
		s38.5-17.5,38.5-49.3V3.1h-27.2V150H238.8z"/>
	<path d="M68,92.8c9.7-6.9,14.2-19,14.2-37.7v-6.7C82.2,17.5,70,3.2,43.9,3.2h-39v191.9h40.5c25.6,0,39.2-16.1,39.2-46.6v-15.3
		C84.6,112.7,79.2,99.5,68,92.8z M53.6,61.8c0,15.6-6.1,17.8-12.6,17.8h-7.5V34.1h9.7c5.4,0,10.4,2.1,10.4,17.3L53.6,61.8L53.6,61.8
		z M56.1,131.3v16.4c0,13.7-4.2,16.5-10.6,16.5h-12v-53.6h8.9C51.4,110.5,56.1,113.7,56.1,131.3z"/>
	<path d="M116.6,3.1L91.1,195h26.6l4.2-34.1h26.4l4.2,34.1h28.9L155.9,3.1H116.6z M144.6,131.4h-18.9l9.5-77.8L144.6,131.4z"/>
	<polygon points="279.6,195 350.5,195 350.5,164.1 308.2,164.1 308.2,113.2 341.8,113.2 341.8,82.3 308.2,82.3 308.2,34 350.5,34 
		350.5,3.1 279.6,3.1 	"/>
	<path d="M683.8,1c-24.9,0-39.2,18-39.2,49.3V148c0,31.3,14.3,49.3,39.2,49.3s39.2-18,39.2-49.3V50.2C723,18.9,708.7,1,683.8,1z
		 M694.4,149.8c0,14.8-6.1,16.5-10.6,16.5c-4.6,0-10.6-1.7-10.6-16.5V48.4c0-14.8,6.1-16.5,10.6-16.5c4.6,0,10.6,1.7,10.6,16.5
		V149.8z"/>
	<polygon points="804.9,34 804.9,3.1 736,3.1 736,195 764.6,195 764.6,117.5 796.2,117.5 796.2,86.5 764.6,86.5 764.6,34 	"/>
	<path d="M440.3,170.2v-29c0-21-4.6-33.5-14.8-40.1c9.8-6.9,14.5-19.4,14.5-38V48.3c0-30.9-12.2-45.2-38.3-45.2h-39V195h28.6v-76.5
		h6.4c8.6,0,14,3.7,14,21.8v29.5c0,15.3,0.9,18.5,2.3,23.6l0.4,1.5h29.4l-1-2.7C440.5,185.5,440.3,178.8,440.3,170.2z M411.5,69.8
		c0,15.6-6.1,17.8-12.6,17.8h-7.5V34h9.7c5.4,0,10.4,2.1,10.4,17.3V69.8z"/>
	<polygon points="510.2,100.7 488.7,3.1 454.3,3.1 454.3,195 480.5,195 480.5,73.8 507.2,195 536.1,195 536.1,3.1 510.2,3.1 	"/>
	<polygon points="602.5,83.6 578.8,83.6 578.8,3.1 550.2,3.1 550.2,195 578.8,195 578.8,114.5 602.5,114.5 602.5,195 631.6,195 
		631.6,3.1 602.5,3.1 	"/>
</g>
</svg>
